<svg width="120" height="198" viewBox="0 0 120 198" fill="none" xmlns="http://www.w3.org/2000/svg">
<path d="M4.57284 169.824H5.6666C6.51963 169.824 8.38582 169.745 9.71927 168.624C10.6791 167.824 11.4525 166.305 11.4525 164.332C11.4525 162.412 10.6791 161.186 9.98617 160.492C8.65272 159.159 6.91945 158.973 5.6666 158.973H4.57284V169.824ZM6.09259 155.506C8.4392 155.506 10.9187 155.853 13.1052 157.96C14.6783 159.479 15.6653 161.559 15.6653 164.332C15.6653 167.131 14.7056 169.158 13.2392 170.624C10.7858 173.104 7.72015 173.291 6.22656 173.291H0.466797V155.506H6.09259Z" fill="#231F20"/>
<path d="M22.3818 173.291H18.2757V155.506H22.3818V173.291Z" fill="#231F20"/>
<path d="M34.9919 159.852C33.6595 158.652 32.5124 158.573 32.0058 158.573C31.4458 158.573 30.753 158.652 30.2725 159.186C30.0056 159.453 29.8193 159.852 29.8193 160.306C29.8193 160.732 29.9533 161.052 30.2192 161.292C30.6462 161.692 31.2595 161.852 32.459 162.305L33.7925 162.812C34.5659 163.106 35.5257 163.506 36.2186 164.172C37.258 165.158 37.5249 166.438 37.5249 167.478C37.5249 169.318 36.8853 170.917 35.9517 171.878C34.3786 173.531 32.0864 173.691 30.9131 173.691C29.633 173.691 28.5131 173.503 27.3932 172.943C26.4868 172.49 25.4464 171.664 24.7797 170.998L26.9128 168.065C27.366 168.518 28.0861 169.132 28.5665 169.425C29.2594 169.851 29.9795 170.064 30.8063 170.064C31.3391 170.064 32.0864 169.957 32.6725 169.451C33.019 169.158 33.312 168.677 33.312 168.012C33.312 167.424 33.0724 167.051 32.6987 166.732C32.2193 166.332 31.1256 165.932 30.619 165.745L29.1526 165.238C28.3268 164.945 27.366 164.572 26.6731 163.825C25.7405 162.839 25.6065 161.586 25.6065 160.732C25.6065 159.159 26.0869 157.827 27.1535 156.733C28.4063 155.453 29.8999 155.106 31.5526 155.106C32.7793 155.106 34.7523 155.32 36.832 156.867L34.9919 159.852Z" fill="#231F20"/>
<path d="M44.1355 173.291H40.0295V155.506H44.1355V173.291Z" fill="#231F20"/>
<path d="M47.5739 173.291V155.506H51.1471L60.7984 166.971V155.506H64.9044V173.291H61.3322L51.6799 161.773V173.291H47.5739Z" fill="#231F20"/>
<path d="M78.1258 158.973H72.3671V162.412H77.6998V165.879H72.3671V173.291H68.261V155.506H78.1258V158.973Z" fill="#231F20"/>
<path d="M90.6554 158.973H84.7093V162.412H90.3623V165.879H84.7093V169.824H90.6554V173.291H80.6033V155.506H90.6554V158.973Z" fill="#231F20"/>
<path d="M104.959 173.447C104.2 173.639 103.525 173.691 102.919 173.691C99.6388 173.691 97.4262 172.571 95.9326 171.104C94.3333 169.558 93.16 167.212 93.16 164.359C93.16 161.559 94.3333 159.212 95.9326 157.666C97.5057 156.147 99.7989 155.106 102.572 155.106C103.271 155.106 104.037 155.191 104.908 155.419L104.931 159.436C104.284 159.137 103.536 158.945 102.678 158.945C101.186 158.945 99.9852 159.426 99.0527 160.332C98.0657 161.292 97.3728 162.732 97.3728 164.438C97.3728 166.278 98.1191 167.585 98.9187 168.358C99.2924 168.731 100.572 169.851 102.758 169.851C103.382 169.851 104.133 169.751 104.963 169.359L104.959 173.447Z" fill="#231F20"/>
<path d="M11.7404 196.948C10.9857 197.139 10.3138 197.191 9.71091 197.191C6.44742 197.191 4.24525 196.076 2.759 194.617C1.16807 193.078 0 190.743 0 187.905C0 185.118 1.16807 182.784 2.759 181.246C4.3248 179.733 6.60652 178.698 9.36551 178.698C10.0615 178.698 10.8235 178.783 11.6901 179.009L11.7121 183.006C11.0695 182.709 10.3253 182.518 9.47122 182.518C7.98601 182.518 6.79178 182.997 5.86339 183.899C4.88162 184.854 4.19187 186.285 4.19187 187.984C4.19187 189.815 4.935 191.115 5.73046 191.884C6.10203 192.256 7.37581 193.37 9.55077 193.37C10.1714 193.37 10.9188 193.27 11.7456 192.879L11.7404 196.948Z" fill="#231F20"/>
<path d="M104.206 196.996C103.443 197.188 102.764 197.24 102.156 197.24C98.8601 197.24 96.6349 196.114 95.135 194.641C93.5274 193.086 92.3478 190.729 92.3478 187.862C92.3478 185.048 93.5274 182.69 95.135 181.136C96.7155 179.609 99.0202 178.564 101.807 178.564C102.51 178.564 103.279 178.649 104.155 178.877L104.177 182.915C103.528 182.615 102.776 182.422 101.914 182.422C100.414 182.422 99.2076 182.905 98.2708 183.816C97.2786 184.78 96.5826 186.227 96.5826 187.942C96.5826 189.792 97.332 191.104 98.1358 191.881C98.5105 192.256 99.7969 193.382 101.994 193.382C102.621 193.382 103.375 193.281 104.211 192.887L104.206 196.996Z" fill="#231F20"/>
<path d="M115.578 158.973V173.291H111.473V158.973H107.607V155.506H119.445V158.973H115.578Z" fill="#231F20"/>
<path d="M19.3517 183.817C18.5594 184.582 17.7388 185.921 17.7388 187.943C17.7388 189.611 18.2851 190.949 19.4061 192.043C20.5805 193.163 21.893 193.545 23.3133 193.545C25.1722 193.545 26.4836 192.863 27.3576 191.988C28.0683 191.304 28.9422 190.02 28.9422 187.917C28.9422 186.031 28.1771 184.637 27.3576 183.817C26.4564 182.942 25.0078 182.26 23.3405 182.26C21.7559 182.26 20.3355 182.833 19.3517 183.817ZM30.418 181.03C32.1398 182.697 33.2597 185.102 33.2597 187.917C33.2597 190.347 32.3857 192.834 30.418 194.748C28.7245 196.387 26.4292 197.425 23.3688 197.425C19.9525 197.425 17.6299 196.059 16.264 194.748C14.5151 193.108 13.4224 190.649 13.4224 187.971C13.4224 185.347 14.5967 182.697 16.2368 181.057C17.4656 179.827 19.7337 178.38 23.3688 178.38C26.2104 178.38 28.5874 179.254 30.418 181.03Z" fill="#231F20"/>
<path d="M36.2961 197.016V178.789H39.9584L49.8493 190.539V178.789H54.0579V197.016H50.3967L40.5047 185.21V197.016H36.2961Z" fill="#231F20"/>
<path d="M57.941 197.016V178.789H61.6023L71.4942 190.539V178.789H75.7018V197.016H72.0406L62.1486 185.21V197.016H57.941Z" fill="#231F20"/>
<path d="M89.8871 182.342H83.7935V185.867H89.5857V189.419H83.7935V193.463H89.8871V197.016H79.5848V178.789H89.8871V182.342Z" fill="#231F20"/>
<path d="M115.482 182.342V197.016H111.275V182.342H107.313V178.789H119.445V182.342H115.482Z" fill="#231F20"/>
<path d="M113.442 88.1369C121.612 61.7422 119.871 30.0441 119.792 28.7075L119.691 26.9638C119.681 26.8026 119.583 26.6582 119.434 26.5922L60.3159 0.0384647C60.2018 -0.0128216 60.072 -0.0128216 59.9589 0.0384647L30.6975 13.1489C30.3395 13.3091 30.3594 13.824 30.7289 13.9569L33.7422 15.0381C33.9735 15.1208 34.0907 15.3783 34.0018 15.6075L32.8138 18.6502C32.6725 19.0123 33.042 19.365 33.3978 19.2059L59.9589 7.30856C60.072 7.25728 60.2018 7.25728 60.3159 7.30856L113.005 30.9735C113.158 31.0426 113.257 31.1871 113.262 31.3545C113.497 39.0412 113.705 64.8623 107.107 86.1765C103.582 97.5673 97.5728 108.239 89.2497 117.911C89.0865 118.101 88.7955 118.115 88.6144 117.944L86.6865 116.117C86.4426 115.887 86.0396 116.006 85.9622 116.333L83.0859 128.37C83.0085 128.697 83.3131 128.985 83.6344 128.89L95.4972 125.363C95.8196 125.267 95.917 124.86 95.6731 124.629L94.0696 123.11C93.9011 122.951 93.8896 122.687 94.0413 122.511C103.084 112.074 109.611 100.513 113.442 88.1369Z" fill="black"/>
<path d="M85.0987 131.02L81.0356 131.331C80.7708 131.352 80.5489 131.134 80.5667 130.868L80.7603 128.004C80.7865 127.621 80.3437 127.395 80.0486 127.64C72.7251 133.715 63.369 139.849 60.3504 141.553C60.2185 141.627 60.0647 141.627 59.9339 141.554C52.6889 137.554 23.5373 119.681 13.167 86.1764C6.56991 64.8622 6.77819 39.0412 7.01264 31.3545C7.01788 31.187 7.11731 31.0426 7.26908 30.9735L21.4147 24.6203C21.6345 24.5219 21.892 24.6203 21.9914 24.839L22.993 27.0695C23.1302 27.3761 23.5478 27.418 23.7445 27.1459L30.9853 17.1084C31.1821 16.8363 31.0105 16.4542 30.6766 16.4207L18.3637 15.1658C18.0287 15.1323 17.7838 15.4725 17.9209 15.7781L18.9174 17.9949C19.0157 18.2147 18.9174 18.4722 18.6976 18.5706L0.840493 26.5922C0.691867 26.6581 0.593482 26.8026 0.584062 26.9638L0.481489 28.7075C0.404036 30.0441 -1.33865 61.7422 6.83157 88.1368C19.5286 129.156 57.1068 147.633 58.6998 148.399L59.9485 149C60.0678 149.058 60.207 149.058 60.3263 149L61.575 148.399C61.9361 148.227 74.9901 140.763 85.419 131.784C85.7372 131.509 85.5163 130.987 85.0987 131.02Z" fill="black"/>
<path d="M72.3263 91.2203C72.3263 98.885 66.1123 105.1 58.4465 105.1C50.7818 105.1 44.5668 98.885 44.5668 91.2203C44.5668 83.5545 50.7818 77.3405 58.4465 77.3405C66.1123 77.3405 72.3263 83.5545 72.3263 91.2203ZM49.0674 62.0687L49.0695 66.1371C49.0695 68.1069 48.3212 70.8146 47.3059 72.506L42.0276 81.3032C41.5116 82.1614 41.027 83.9104 41.027 84.8974V109.056L75.8996 109.046L75.8891 84.8974C75.8891 83.9115 75.4014 82.1625 74.8885 81.3032L69.6102 72.506C68.595 70.8104 67.8435 68.1142 67.8435 66.1371V62.0687H49.0674Z" fill="#A1DBE8"/>
<path d="M77.2288 37.333L67.0783 40.3621C66.4158 40.5599 65.7292 40.6604 65.0384 40.6604H42.9036C42.9036 40.6604 42.4797 38.6801 42.508 37.5256C42.5436 36.2612 42.8283 35.0073 43.4238 33.8142C44.0717 32.5215 44.9519 31.4424 46.0206 30.5517C46.861 29.8536 47.7695 29.3083 48.6697 28.9064C49.1899 28.6751 49.4756 28.5924 49.4756 28.5924H77.2288V37.333ZM74.8885 81.3032V81.3042C75.4013 82.1625 75.8891 83.9104 75.8891 84.8974L75.8995 109.046L41.027 109.056V84.8974C41.027 83.9104 41.5116 82.1615 42.0276 81.3032L47.3059 72.506C48.3211 70.8136 49.0695 68.1069 49.0695 66.1371L49.0674 62.0687L49.0653 58.0914H67.8434V66.1371C67.8434 68.1142 68.5949 70.8104 69.6102 72.506L74.8885 81.3032ZM54.4336 52.7283C54.4336 52.7273 54.4336 52.7273 54.4336 52.7273V46.0245H62.4793V52.7283H54.4336ZM79.9103 23.2282H49.0695C48.8518 23.2282 48.6351 23.2575 48.4206 23.3067C47.9799 23.4177 47.3132 23.6417 46.4905 24.0049C45.1581 24.5962 43.8331 25.3938 42.5875 26.4342C40.9704 27.777 39.6203 29.4328 38.6259 31.4173C36.788 35.0932 36.788 38.947 37.8608 42.5234C38.1309 43.4277 38.4124 44.1154 38.6259 44.5424C39.0823 45.4509 40.0086 46.0245 41.027 46.0245H49.0695V52.7273C49.0695 52.7273 49.0695 52.7273 49.0695 52.7283H49.0663C46.1022 52.7283 43.7085 55.1221 43.7085 58.0925V66.1381C43.7085 67.1356 43.2208 68.8877 42.7079 69.746L37.4254 78.5432C36.4143 80.2356 35.6628 82.9349 35.6628 84.8974V109.057C35.6628 112.013 38.0639 114.41 41.0123 114.41H75.9006C78.8563 114.41 81.2532 112.017 81.2532 109.057L81.2542 84.8974C81.2542 82.9349 80.5027 80.2356 79.4875 78.5432L74.2092 69.746C73.6921 68.8835 73.2075 67.1388 73.2075 66.1381V58.0925C73.2075 55.1325 70.8107 52.7283 67.8507 52.7283H67.8434C67.8434 52.7273 67.8434 52.7273 67.8434 52.7273V46.0245C67.8434 45.9282 67.8392 45.835 67.8287 45.7429L72.5408 44.332L77.3921 57.6675C77.8976 59.0606 79.4362 59.7765 80.8293 59.27C82.2182 58.7644 82.9383 57.2258 82.4317 55.8338L77.6883 42.7861L80.6838 41.8881C81.8163 41.5469 82.5929 40.5034 82.5929 39.3206V25.9108C82.5929 24.4288 81.3924 23.2282 79.9103 23.2282Z" fill="black"/>
<path d="M54.8126 83.0354V87.5852H50.2627C49.7666 87.5852 49.3616 87.9777 49.3616 88.478V93.9625C49.3616 94.4545 49.753 94.8543 50.2627 94.8543H54.8126V99.4041C54.8126 99.9002 55.204 100.305 55.7043 100.305H61.1888C61.6808 100.305 62.0816 99.9138 62.0816 99.4041V94.8543H66.6315C67.1276 94.8543 67.5316 94.4628 67.5316 93.9625V88.478C67.5316 87.9861 67.1401 87.5852 66.6315 87.5852H62.0816V83.0354C62.0816 82.5393 61.6891 82.1353 61.1888 82.1353H55.7043C55.2124 82.1353 54.8126 82.5267 54.8126 83.0354Z" fill="#CA2026"/>
</svg>
